<svg xmlns="http://www.w3.org/2000/svg" xmlns:xlink="http://www.w3.org/1999/xlink" width="70" zoomAndPan="magnify" viewBox="0 0 52.5 52.499999" height="70" preserveAspectRatio="xMidYMid meet" version="1.0"><defs><clipPath id="e0e30a2bd2"><path d="M 0 0 L 49.777344 0 L 49.777344 52 L 0 52 Z M 0 0 " clip-rule="nonzero"/></clipPath></defs><g clip-path="url(#e0e30a2bd2)"><path fill="#ffed90" d="M 48.582031 34.539062 C 48.390625 31.6875 48.125 28.867188 48.082031 26.003906 C 48.050781 23.824219 48.570312 21.84375 48.652344 19.722656 C 48.824219 15.183594 45.550781 11.328125 45.367188 6.785156 C 45.285156 4.648438 44.570312 4.589844 42.394531 4.195312 C 40.894531 3.921875 39.351562 3.792969 37.828125 3.726562 C 33.878906 3.554688 30.121094 2.457031 26.207031 2.09375 C 20.8125 1.589844 15.175781 0.0117188 9.726562 0.269531 C 9.191406 0.230469 8.746094 0.226562 8.449219 0.269531 C 6.734375 0.515625 4.570312 5.4375 6.101562 6.519531 C 6.4375 6.757812 7.441406 7.023438 8.867188 7.304688 C 8.695312 8.730469 8.238281 10.070312 7.167969 11.226562 C 5.214844 13.347656 3.582031 14.976562 2.929688 17.746094 C 2.277344 20.519531 1.628906 22.964844 1.628906 25.738281 C 1.628906 28.835938 1.628906 32.09375 1.136719 35.191406 C 0.648438 37.800781 -0.00390625 40.898438 0.160156 43.507812 C 3.257812 45.136719 7.171875 45.625 10.59375 46.441406 C 14.667969 47.417969 18.746094 48.234375 22.820312 49.375 C 25.757812 50.027344 28.855469 51.007812 31.953125 51.167969 C 33.09375 51.332031 34.398438 51.984375 35.539062 51.820312 C 37.332031 51.820312 38.636719 50.355469 39.941406 49.539062 C 43.199219 47.257812 46.625 44.8125 49.558594 42.039062 C 49.722656 39.757812 48.742188 36.984375 48.582031 34.539062 Z M 48.582031 34.539062 " fill-opacity="1" fill-rule="nonzero"/></g><path fill="#af1909" d="M 22.007812 4.824219 C 21.113281 5.394531 20.625 6.859375 20.785156 7.921875 C 20.867188 8.734375 21.03125 8.898438 20.378906 9.632812 C 19.972656 10.121094 19.480469 10.609375 19.238281 11.179688 C 20.703125 11.34375 22.089844 11.507812 23.558594 11.507812 C 23.476562 11.019531 23.722656 10.285156 23.882812 9.796875 C 24.128906 9.144531 24.699219 8.898438 24.863281 8.246094 C 25.027344 7.675781 24.863281 7.1875 25.105469 6.535156 C 25.269531 6.046875 25.597656 5.554688 25.839844 5.066406 C 24.617188 5.066406 23.394531 5.148438 22.171875 5.148438 Z M 22.007812 4.824219 " fill-opacity="1" fill-rule="nonzero"/><path fill="#af1909" d="M 34.902344 46.421875 C 35.011719 45.101562 35.230469 43.792969 35.386719 42.476562 C 35.621094 40.496094 35.796875 38.511719 35.691406 36.515625 C 35.59375 34.617188 35.210938 32.742188 35.078125 30.84375 C 34.957031 29.097656 34.863281 27.199219 35.351562 25.5 C 35.878906 23.679688 36.96875 22.011719 37.945312 20.410156 C 38.839844 18.949219 39.59375 17.449219 40.304688 15.890625 C 40.96875 14.429688 41.621094 12.875 41.742188 11.253906 C 41.757812 11.066406 41.75 10.878906 41.734375 10.6875 C 42.253906 10.53125 42.742188 10.289062 43.179688 9.933594 C 43.507812 11.128906 43.90625 12.308594 44.039062 13.546875 C 44.191406 14.988281 43.707031 16.417969 43.445312 17.824219 C 43.203125 19.128906 43.046875 20.449219 43.015625 21.777344 C 42.984375 23.085938 42.605469 24.320312 42.242188 25.570312 C 41.511719 28.085938 41.359375 30.796875 41.296875 33.402344 C 41.226562 36.257812 41.316406 39.136719 41.417969 41.996094 C 41.421875 42.089844 41.5625 42.089844 41.566406 41.992188 C 41.742188 36.371094 40.964844 30.679688 42.582031 25.1875 C 42.914062 24.0625 43.203125 22.953125 43.246094 21.777344 C 43.296875 20.289062 43.496094 18.828125 43.773438 17.367188 C 44.023438 16.082031 44.375 14.867188 44.277344 13.546875 C 44.183594 12.28125 43.738281 11.058594 43.398438 9.84375 C 43.390625 9.816406 43.375 9.796875 43.355469 9.785156 C 43.554688 9.605469 43.738281 9.40625 43.914062 9.175781 C 44.398438 8.535156 45.296875 7.285156 44.871094 6.421875 C 44.414062 5.488281 43.230469 5.820312 42.582031 6.324219 C 41.589844 7.101562 40.992188 8.589844 40.816406 9.804688 C 40.808594 9.871094 40.832031 9.957031 40.910156 9.972656 C 42.496094 10.25 43.378906 8.851562 43.78125 7.511719 C 43.804688 7.4375 43.757812 7.367188 43.6875 7.34375 C 43.257812 7.199219 42.84375 7.054688 42.484375 6.773438 C 42.988281 6.238281 44.058594 5.660156 44.601562 6.457031 C 44.953125 6.976562 44.445312 7.847656 44.1875 8.296875 C 43.828125 8.925781 43.371094 9.503906 42.78125 9.925781 C 42.441406 10.171875 42.070312 10.347656 41.675781 10.46875 C 41.648438 10.457031 41.613281 10.464844 41.597656 10.492188 C 40.300781 10.875 38.808594 10.699219 37.523438 10.519531 C 35.554688 10.246094 33.585938 10.019531 31.617188 9.753906 C 29.414062 9.457031 27.25 8.945312 25.046875 8.628906 C 20.695312 8.007812 16.28125 8.039062 11.925781 7.441406 C 11.238281 7.347656 10.554688 7.234375 9.875 7.097656 C 9.820312 7.085938 9.796875 7.167969 9.851562 7.179688 C 14.058594 8.128906 18.371094 8.1875 22.648438 8.589844 C 24.953125 8.808594 27.1875 9.292969 29.464844 9.675781 C 31.597656 10.035156 33.746094 10.214844 35.882812 10.519531 C 37.675781 10.777344 39.800781 11.21875 41.585938 10.730469 C 41.554688 12.503906 40.859375 14.207031 40.148438 15.800781 C 39.453125 17.363281 38.683594 18.859375 37.789062 20.320312 C 36.855469 21.847656 35.882812 23.363281 35.257812 25.050781 C 34.6875 26.589844 34.726562 28.332031 34.789062 29.949219 C 34.859375 31.8125 35.148438 33.636719 35.363281 35.488281 C 35.605469 37.617188 35.441406 39.765625 35.203125 41.890625 C 35.058594 43.167969 34.863281 44.441406 34.722656 45.71875 C 34.589844 46.960938 34.449219 48.289062 34.730469 49.519531 C 34.789062 49.765625 34.886719 50 35.027344 50.207031 C 35.117188 50.335938 35.328125 50.214844 35.238281 50.082031 C 34.570312 49.113281 34.8125 47.519531 34.902344 46.421875 Z M 42.414062 9.359375 C 42.226562 9.527344 42.007812 9.625 41.773438 9.703125 C 41.78125 9.699219 41.085938 9.796875 41.09375 9.757812 C 41.140625 9.429688 41.238281 9.105469 41.34375 8.789062 C 41.558594 8.140625 41.882812 7.519531 42.308594 6.984375 C 42.660156 7.257812 43.058594 7.417969 43.476562 7.5625 C 43.261719 8.242188 42.949219 8.875 42.414062 9.359375 Z M 48.339844 41.3125 C 46.773438 41.339844 45.214844 41.5 43.664062 41.691406 C 42.539062 41.832031 41.613281 42.207031 40.820312 43.039062 C 39.785156 44.128906 39.027344 45.433594 38.148438 46.648438 C 37.289062 47.835938 36.402344 49.011719 35.339844 50.023438 C 35.28125 50.078125 35.203125 49.996094 35.253906 49.941406 C 36.46875 48.628906 37.507812 47.207031 38.507812 45.730469 C 39.28125 44.585938 40.011719 43.324219 41.09375 42.433594 C 41.84375 41.816406 42.703125 41.53125 43.664062 41.425781 C 45.21875 41.257812 46.773438 41.039062 48.339844 41.046875 C 48.511719 41.046875 48.507812 41.308594 48.339844 41.3125 Z M 8.945312 19.207031 C 7.304688 18.828125 5.664062 18.457031 3.996094 18.242188 C 3.929688 18.234375 3.925781 18.132812 3.992188 18.136719 C 5.597656 18.289062 7.183594 18.582031 8.75 18.945312 C 10.320312 19.308594 11.921875 19.628906 13.464844 20.097656 C 13.515625 20.113281 13.507812 20.207031 13.449219 20.199219 C 11.929688 20.007812 10.433594 19.554688 8.945312 19.207031 Z M 19.320312 21.191406 C 19.234375 21.195312 19.238281 21.070312 19.320312 21.058594 C 22.023438 20.742188 24.785156 21.234375 27.421875 21.8125 C 30.113281 22.398438 32.773438 23.15625 35.492188 23.621094 C 35.644531 23.644531 35.578125 23.875 35.429688 23.847656 C 30.042969 22.929688 24.863281 20.890625 19.320312 21.191406 Z M 26.199219 27.714844 C 24.726562 28.898438 22.988281 29.792969 21.300781 30.617188 C 19.605469 31.449219 17.875 32.199219 16.140625 32.945312 C 12.59375 34.46875 9.03125 36.011719 5.820312 38.171875 C 5.75 38.21875 5.6875 38.109375 5.753906 38.0625 C 8.933594 35.835938 12.484375 34.289062 16.03125 32.761719 C 17.765625 32.015625 19.5 31.269531 21.191406 30.433594 C 22.898438 29.589844 24.5 28.597656 26.144531 27.644531 C 26.1875 27.621094 26.238281 27.683594 26.199219 27.714844 Z M 26.199219 27.714844 " fill-opacity="1" fill-rule="nonzero"/></svg>